<svg xmlns="http://www.w3.org/2000/svg" width="34" height="25" viewBox="0 0 34 25"><defs><style>.a{fill:#2774ae;}.b{fill:#ffffff;}.c,.d{stroke:#2774ae;}.d{fill:#2774ae;}</style></defs><g transform="translate(-236 -183)"><g class="a" transform="translate(236 183)"><path class="c" d="M 21.5 24.5 L 12.5 24.5 C 9.294679641723633 24.5 6.281219959259033 23.25177955627441 4.01471996307373 20.98527908325195 C 1.748219966888428 18.71878051757812 0.5 15.70532035827637 0.5 12.5 C 0.5 9.294679641723633 1.748219966888428 6.281219959259033 4.01471996307373 4.01471996307373 C 6.281219959259033 1.748219966888428 9.294679641723633 0.5 12.5 0.5 L 21.5 0.5 C 24.70532035827637 0.5 27.71878051757812 1.748219966888428 29.98527908325195 4.01471996307373 C 32.25178146362305 6.281219959259033 33.5 9.294679641723633 33.5 12.5 C 33.5 15.70532035827637 32.25178146362305 18.71878051757812 29.98527908325195 20.98527908325195 C 27.71878051757812 23.25177955627441 24.70532035827637 24.5 21.5 24.5 Z"/><path class="d" d="M 12.5 1 C 9.428239822387695 1 6.54033088684082 2.196210861206055 4.368270874023438 4.368270874023438 C 2.196210861206055 6.54033088684082 1 9.428239822387695 1 12.5 C 1 15.5717601776123 2.196210861206055 18.45967102050781 4.368270874023438 20.63172912597656 C 6.54033088684082 22.80379104614258 9.428239822387695 24 12.5 24 L 21.5 24 C 24.5717601776123 24 27.45967102050781 22.80379104614258 29.63172912597656 20.63172912597656 C 31.80379104614258 18.45967102050781 33 15.5717601776123 33 12.5 C 33 9.428239822387695 31.80379104614258 6.54033088684082 29.63172912597656 4.368270874023438 C 27.45967102050781 2.196210861206055 24.5717601776123 1 21.5 1 L 12.5 1 M 12.5 0 L 21.5 0 C 28.40356063842773 0 34 5.596439361572266 34 12.5 C 34 19.40356063842773 28.40356063842773 25 21.5 25 L 12.5 25 C 5.596439361572266 25 0 19.40356063842773 0 12.5 C 0 5.596439361572266 5.596439361572266 0 12.5 0 Z"/></g></g><g transform="translate(-1270.851 -467.881)"><g transform="translate(1283.296 478.343)"><circle class="b" cx="1.329" cy="1.329" r="1.329" transform="translate(0 0)"/><circle class="b" cx="1.329" cy="1.329" r="1.329" transform="translate(5.399 0)"/></g><path class="b" d="M1303.345,519.392a5.492,5.492,0,0,1-10.974,0,14.676,14.676,0,0,0,5.487.881A16.218,16.218,0,0,0,1303.345,519.392Z" transform="translate(-10.525 -36.985)"/><g transform="translate(1278.851 471.881)"><path class="b" d="M1295.01,482.546a.388.388,0,0,0-.269.478,7.688,7.688,0,1,1-5.394-5.354.388.388,0,0,0,.2-.749,8.466,8.466,0,1,0,5.94,5.894A.39.39,0,0,0,1295.01,482.546Z" transform="translate(-1278.851 -475.576)"/><path class="b" d="M1332.924,475.2h-2.88v-2.88a.443.443,0,0,0-.886,0v2.88h-2.88a.443.443,0,1,0,0,.886h2.88v2.88a.443.443,0,0,0,.886,0v-2.88h2.88a.443.443,0,1,0,0-.886Z" transform="translate(-1315.425 -471.881)"/></g></g></svg>
