<svg xmlns="http://www.w3.org/2000/svg" width="31" height="31" viewBox="0 0 31 31"><defs><style>.a,.b{fill:#fff;}.a,.b,.c{stroke:#2774ae;}.a{stroke-width:2px;}.c,.e{fill:none;}.c{stroke-linecap:round;}.d{stroke:none;}</style></defs><g transform="translate(1 1)"><path class="a" d="M14.5,0A14.5,14.5,0,1,1,0,14.5,14.5,14.5,0,0,1,14.5,0Z"/><g transform="translate(-1044 -214)"><g class="b" transform="translate(1055 221)"><rect class="d" width="8" height="8" rx="3"/><rect class="e" x="0.5" y="0.5" width="7" height="7" rx="2.5"/></g><g class="b" transform="translate(1053 225)"><path class="d" d="M0,0H12a0,0,0,0,1,0,0V9a3,3,0,0,1-3,3H3A3,3,0,0,1,0,9V0A0,0,0,0,1,0,0Z"/><path class="e" d="M1,.5H11a.5.5,0,0,1,.5.5V9A2.5,2.5,0,0,1,9,11.5H3A2.5,2.5,0,0,1,.5,9V1A.5.5,0,0,1,1,.5Z"/></g><line class="c" x2="14" transform="translate(1052 225.5)"/><g transform="translate(-2)"><line class="c" y2="5" transform="translate(1058 228.5)"/><line class="c" y2="5" transform="translate(1064 228.5)"/><line class="c" y2="5" transform="translate(1061 228.5)"/></g></g></g></svg>