<svg xmlns="http://www.w3.org/2000/svg" width="36" height="36" viewBox="0 0 36 36"><defs><style>.a{fill:#2774ae;stroke:#2774ae;}.b{fill:#fff;}.c{stroke:none;}.d{fill:none;}</style></defs><g transform="translate(-87 -192)"><g class="a" transform="translate(87 192)"><path class="c" d="M0,0H33a3,3,0,0,1,3,3V33a3,3,0,0,1-3,3H0a0,0,0,0,1,0,0V0A0,0,0,0,1,0,0Z"/><path class="d" d="M1,.5H33A2.5,2.5,0,0,1,35.5,3V33A2.5,2.5,0,0,1,33,35.5H1A.5.5,0,0,1,.5,35V1A.5.5,0,0,1,1,.5Z"/></g><path class="b" d="M-4613.875,14V7.875H-4620V6.125h6.125V0h1.75V6.125H-4606v1.75h-6.125V14Z" transform="translate(4718 203)"/></g></svg>