<?xml version="1.0" encoding="utf-8"?>
<!-- Generator: Adobe Illustrator 25.4.1, SVG Export Plug-In . SVG Version: 6.00 Build 0)  -->
<svg version="1.1" id="Layer_1" xmlns="http://www.w3.org/2000/svg" xmlns:xlink="http://www.w3.org/1999/xlink" x="0px" y="0px"
	 viewBox="0 0 50 50" style="enable-background:new 0 0 50 50;" xml:space="preserve">
<style type="text/css">
	.st0{fill:#FFFFFF;}
	.st1{fill:#2774AE;}
</style>
<path class="st0" d="M0,0h47c1.7,0,3,1.3,3,3v44c0,1.7-1.3,3-3,3H0V0z"/>
<g transform="translate(19 12.72)">
	<g transform="translate(-6 0.28)">
		<path class="st1" d="M15.5,14h-0.8l-0.3-0.3c1-1.2,1.6-2.7,1.6-4.2C16,5.9,13.1,3,9.5,3S3,5.9,3,9.5S5.9,16,9.5,16
			c1.5,0,3-0.6,4.2-1.6l0.3,0.3v0.8l5,5l1.5-1.5L15.5,14z M9.5,14C7,14,5,12,5,9.5S7,5,9.5,5S14,7,14,9.5C14,12,12,14,9.5,14
			C9.5,14,9.5,14,9.5,14z"/>
	</g>
</g>
</svg>
