<svg xmlns="http://www.w3.org/2000/svg" width="50" height="50"
  viewBox="0 0 50 50">
  <defs>
    <style>
      .a {
        fill: #2774ae;
      }

      .b {
        fill: #fff;
      }
    </style>
  </defs>
  <path class="a"
    d="M0,0H47a3,3,0,0,1,3,3V47a3,3,0,0,1-3,3H0a0,0,0,0,1,0,0V0A0,0,0,0,1,0,0Z" />
  <g transform="translate(19 12.72)">
    <g transform="translate(-6 0.28)">
      <path class="b"
        d="M15.5,14h-.8l-.3-.3A6.259,6.259,0,0,0,16,9.5,6.5,6.5,0,1,0,9.5,16a6.259,6.259,0,0,0,4.2-1.6l.3.3v.8l5,5L20.5,19Zm-6,0A4.5,4.5,0,1,1,14,9.5,4.481,4.481,0,0,1,9.5,14Z" />
    </g>
  </g>
</svg>
